<?xml version="1.0" encoding="iso-8859-1"?>
<!-- Generator: Adobe Illustrator 19.0.0, SVG Export Plug-In . SVG Version: 6.00 Build 0)  -->
<svg version="1.1" id="Layer_1" xmlns="http://www.w3.org/2000/svg" xmlns:xlink="http://www.w3.org/1999/xlink" x="0px" y="0px"
	 viewBox="0 0 512 512" style="enable-background:new 0 0 512 512;" xml:space="preserve">
<path style="fill:#E6E6E6;" d="M428.01,68.615l-35.657,388.989C392.353,487.652,331.309,512,256,512
	c-32.724,0-62.762-4.603-86.256-12.267c-30.575-9.966-50.097-25.142-50.097-42.129L84.434,73.51l-0.432-4.732l-0.012-0.164H428.01z"
	/>
<path id="SVGCleanerId_0" style="fill:#CCCCCC;" d="M169.744,499.733c-30.575-9.966-50.097-25.142-50.097-42.129L84.434,73.51
	c3.809,21.579,32.631,40.4,74.947,51.885L169.744,499.733z"/>
<path style="fill:#F2F2F2;" d="M428.01,68.615c0,37.9-77.003,68.627-172.01,68.627c-11.858,0-23.425-0.479-34.605-1.39
	C142.978,129.46,83.99,101.783,83.99,68.615c0-33.157,58.988-60.834,137.405-67.225C232.575,0.479,244.142,0,256,0
	C351.007,0,428.01,30.727,428.01,68.615z"/>
<g>
	<path style="fill:#4CA1E0;" d="M410.895,255.381l-18.541,202.223C392.353,487.652,331.309,512,256,512
		s-136.353-24.348-136.353-54.396l-18.553-202.363c5.725,32.14,72.891,57.504,154.906,57.504
		C337.91,312.745,405.006,287.463,410.895,255.381z"/>
	<path style="fill:#4CA1E0;" d="M100.697,250.894l0.397,4.346C100.837,253.804,100.708,252.355,100.697,250.894z"/>
	<path style="fill:#4CA1E0;" d="M411.315,250.789c0,1.542-0.14,3.073-0.421,4.591L411.315,250.789z"/>
</g>
<path style="fill:#5CB1E5;" d="M261.34,188.864c83.307,1.125,149.981,28.416,149.981,61.92c0,34.219-69.538,61.958-155.321,61.958
	c-85.771,0-155.308-27.74-155.308-61.958c0-23.312,32.268-43.611,79.943-54.179"/>
<polygon style="fill:#80D8C7;" points="83.99,68.615 84.001,68.615 84.001,68.778 "/>
<g>
	<path id="SVGCleanerId_0_1_" style="fill:#CCCCCC;" d="M169.744,499.733c-30.575-9.966-50.097-25.142-50.097-42.129L84.434,73.51
		c3.809,21.579,32.631,40.4,74.947,51.885L169.744,499.733z"/>
</g>
<path style="fill:#368CC1;" d="M169.744,499.733c-30.575-9.966-50.097-25.142-50.097-42.129l-18.541-202.246l-0.421-4.568v-0.012
	c0.012-20.036,23.845-37.842,60.811-49.162l2.746,99.166L169.744,499.733z"/>
<path id="SVGCleanerId_1" style="fill:#4CA1E0;" d="M164.253,300.77c-38.531-11.263-63.556-29.465-63.556-49.98
	c0-20.036,23.834-37.842,60.787-49.162c0.012-0.012,0.012-0.012,0.023-0.012L164.253,300.77z"/>
<g>
	<path id="SVGCleanerId_1_1_" style="fill:#4CA1E0;" d="M164.253,300.77c-38.531-11.263-63.556-29.465-63.556-49.98
		c0-20.036,23.834-37.842,60.787-49.162c0.012-0.012,0.012-0.012,0.023-0.012L164.253,300.77z"/>
</g>
<path style="fill:#FFFFFF;" d="M221.395,1.39v134.461C142.978,129.46,83.99,101.783,83.99,68.615
	C83.99,35.458,142.978,7.781,221.395,1.39z"/>
<path style="fill:#97F2E3;" d="M292.802,219.152l-25.084,37.246c-18.623,3.318-42.118,4.58-69.281-0.093
	c-15.118-2.605-31.381-7.045-48.578-13.985l41.872-62.189c8.634-12.84,23.904-18.097,37.783-14.896v0.012
	c6.052,1.39,11.847,4.393,16.707,9.078L292.802,219.152z"/>
<path style="fill:#76DDCE;" d="M229.514,165.234v0.012c0,0-40.774,14.125-31.077,91.046v0.012
	c-15.118-2.605-31.381-7.045-48.578-13.985l41.872-62.189C200.365,167.29,215.635,162.033,229.514,165.234z"/>
<path style="fill:#97F2E3;" d="M373.941,251.362c-17.536,8.295-43.087,16.812-75.683,18.097
	c-11.122,0.456-23.051,0.047-35.762-1.484l14.394-31.895c7.781-17.256,27.222-24.978,44.185-19.16
	c2.956,1.005,5.83,2.43,8.564,4.288L373.941,251.362z"/>
<path style="fill:#76DDCE;" d="M298.258,269.459c-11.122,0.456-23.051,0.047-35.762-1.484l14.394-31.895
	c7.781-17.256,27.222-24.978,44.185-19.16l0.035,0.023C321.11,216.943,285.944,235.952,298.258,269.459z"/>
<g>
	<path style="fill:#368CC1;" d="M170.182,381.64c-7.745,0-11.659-9.762-6.047-15.113c2.818-2.686,7.208-3.164,10.544-1.168
		c3.126,1.87,4.824,5.642,4.09,9.224C177.942,378.623,174.331,381.64,170.182,381.64z"/>
	<path style="fill:#368CC1;" d="M327.763,373.135c-7.733,0-11.643-9.773-6.038-15.112c2.93-2.791,7.533-3.185,10.898-0.939
		c3.107,2.073,4.582,6.016,3.577,9.62C335.155,370.45,331.666,373.135,327.763,373.135z"/>
	<path style="fill:#368CC1;" d="M267.736,424.762c-3.519,0-6.747-2.167-8.096-5.409c-1.485-3.564-0.377-7.848,2.666-10.231
		c6.245-4.888,15.626,0.745,14.016,8.595C275.493,421.759,271.876,424.762,267.736,424.762z"/>
</g>
<g>
</g>
<g>
</g>
<g>
</g>
<g>
</g>
<g>
</g>
<g>
</g>
<g>
</g>
<g>
</g>
<g>
</g>
<g>
</g>
<g>
</g>
<g>
</g>
<g>
</g>
<g>
</g>
<g>
</g>
</svg>
