<?xml version="1.0" standalone="no"?>
<!DOCTYPE svg PUBLIC "-//W3C//DTD SVG 20010904//EN"
 "http://www.w3.org/TR/2001/REC-SVG-20010904/DTD/svg10.dtd">
<svg version="1.0" xmlns="http://www.w3.org/2000/svg"
 width="871.000000pt" height="1280.000000pt" viewBox="0 0 871.000000 1280.000000"
 preserveAspectRatio="xMidYMid meet">
<metadata>
Created by potrace 1.15, written by Peter Selinger 2001-2017
</metadata>
<g transform="translate(0.000000,1280.000000) scale(0.100000,-0.100000)"
fill="#9e9e9e" stroke="none">
<path d="M7925 12766 c-7 -17 -93 -251 -190 -521 -98 -269 -276 -761 -396
-1093 -121 -332 -219 -607 -219 -611 0 -4 17 -17 39 -29 l38 -22 16 43 c9 23
41 116 72 207 31 91 97 281 146 423 157 452 265 765 362 1047 52 151 118 341
146 422 28 80 51 148 51 151 0 3 -12 7 -26 10 -22 4 -28 0 -39 -27z m-4 -63
c-12 -20 -14 -14 -5 12 4 9 9 14 11 11 3 -2 0 -13 -6 -23z m-21 -60 c-11 -17
-11 -17 -6 0 3 10 6 24 7 30 0 9 2 9 5 0 3 -7 0 -20 -6 -30z m-19 -50 c-12
-20 -14 -14 -5 12 4 9 9 14 11 11 3 -2 0 -13 -6 -23z m-40 -110 c-12 -20 -14
-14 -5 12 4 9 9 14 11 11 3 -2 0 -13 -6 -23z m-21 -60 c-11 -17 -11 -17 -6 0
3 10 6 24 7 30 0 9 2 9 5 0 3 -7 0 -20 -6 -30z m-21 -62 c-6 -18 -13 -30 -15
-28 -2 2 1 18 7 36 6 18 13 30 15 28 2 -2 -1 -18 -7 -36z m-38 -98 c-12 -20
-14 -14 -5 12 4 9 9 14 11 11 3 -2 0 -13 -6 -23z m-21 -60 c-11 -17 -11 -17
-6 0 3 10 6 24 7 30 0 9 2 9 5 0 3 -7 0 -20 -6 -30z m-26 -77 c-9 -26 -18 -45
-20 -43 -2 2 3 25 12 51 9 26 18 45 20 43 2 -2 -3 -25 -12 -51z m-33 -83 c-12
-20 -14 -14 -5 12 4 9 9 14 11 11 3 -2 0 -13 -6 -23z m-20 -60 c-12 -20 -14
-14 -5 12 4 9 9 14 11 11 3 -2 0 -13 -6 -23z m-27 -77 c-9 -26 -18 -45 -20
-43 -2 2 3 25 12 51 9 26 18 45 20 43 2 -2 -3 -25 -12 -51z m-53 -143 c-12
-20 -14 -14 -5 12 4 9 9 14 11 11 3 -2 0 -13 -6 -23z m-21 -60 c-11 -17 -11
-17 -6 0 3 10 6 24 7 30 0 9 2 9 5 0 3 -7 0 -20 -6 -30z m-19 -50 c-12 -20
-14 -14 -5 12 4 9 9 14 11 11 3 -2 0 -13 -6 -23z m-40 -110 c-12 -20 -14 -14
-5 12 4 9 9 14 11 11 3 -2 0 -13 -6 -23z m-21 -60 c-11 -17 -11 -17 -6 0 3 10
6 24 7 30 0 9 2 9 5 0 3 -7 0 -20 -6 -30z m-19 -50 c-12 -20 -14 -14 -5 12 4
9 9 14 11 11 3 -2 0 -13 -6 -23z m-40 -110 c-12 -20 -14 -14 -5 12 4 9 9 14
11 11 3 -2 0 -13 -6 -23z m-21 -60 c-11 -17 -11 -17 -6 0 3 10 6 24 7 30 0 9
2 9 5 0 3 -7 0 -20 -6 -30z m-19 -50 c-12 -20 -14 -14 -5 12 4 9 9 14 11 11 3
-2 0 -13 -6 -23z m-40 -110 c-12 -20 -14 -14 -5 12 4 9 9 14 11 11 3 -2 0 -13
-6 -23z m-21 -60 c-11 -17 -11 -17 -6 0 3 10 6 24 7 30 0 9 2 9 5 0 3 -7 0
-20 -6 -30z m-21 -62 c-6 -18 -13 -30 -15 -28 -2 2 1 18 7 36 6 18 13 30 15
28 2 -2 -1 -18 -7 -36z m-38 -98 c-12 -20 -14 -14 -5 12 4 9 9 14 11 11 3 -2
0 -13 -6 -23z m-21 -60 c-11 -17 -11 -17 -6 0 3 10 6 24 7 30 0 9 2 9 5 0 3
-7 0 -20 -6 -30z m-26 -77 c-9 -26 -18 -45 -20 -43 -2 2 3 25 12 51 9 26 18
45 20 43 2 -2 -3 -25 -12 -51z m-33 -83 c-12 -20 -14 -14 -5 12 4 9 9 14 11
11 3 -2 0 -13 -6 -23z m-21 -60 c-11 -17 -11 -17 -6 0 3 10 6 24 7 30 0 9 2 9
5 0 3 -7 0 -20 -6 -30z m-19 -50 c-12 -20 -14 -14 -5 12 4 9 9 14 11 11 3 -2
0 -13 -6 -23z"/>
<path d="M8001 12770 c-6 -16 -16 -45 -22 -62 -6 -18 -15 -42 -19 -53 -9 -20
-101 -289 -146 -425 -14 -41 -29 -84 -34 -95 -5 -11 -38 -105 -73 -210 -36
-104 -79 -230 -96 -280 -18 -49 -58 -166 -90 -260 -32 -93 -73 -210 -90 -260
-18 -49 -58 -166 -90 -260 -32 -93 -73 -210 -91 -260 -17 -49 -34 -100 -37
-113 l-5 -22 -32 19 c-138 84 -489 260 -671 336 -568 236 -1183 378 -1844 426
-213 15 -795 6 -986 -15 -477 -54 -845 -133 -1249 -267 -832 -276 -1486 -716
-1916 -1290 -118 -157 -190 -275 -276 -454 -280 -577 -307 -1188 -80 -1775 49
-126 56 -149 46 -155 -16 -10 -20 -90 -7 -134 13 -41 14 -43 19 -18 3 14 1 24
-3 21 -5 -3 -9 -1 -9 4 0 6 7 13 16 16 17 6 16 39 -1 91 -3 11 1 7 10 -9 12
-19 15 -40 11 -65 -19 -119 -35 -324 -34 -436 1 -71 3 -111 5 -87 2 23 7 42
11 42 20 -1 31 -20 35 -60 3 -25 4 18 2 95 -3 169 7 123 29 -140 9 -99 23
-259 31 -355 9 -96 22 -233 31 -304 8 -71 17 -170 19 -219 4 -77 62 -613 95
-872 15 -118 127 -1093 140 -1215 6 -58 20 -172 30 -255 11 -82 35 -294 55
-470 20 -176 45 -363 56 -415 11 -52 29 -142 40 -200 42 -229 94 -385 194
-578 216 -416 581 -792 1065 -1097 128 -80 475 -255 625 -315 723 -287 1494
-380 2295 -279 745 94 1470 394 1955 807 88 75 261 252 330 338 279 345 427
733 470 1234 31 362 72 753 85 813 40 192 52 265 60 361 5 61 77 554 160 1096
83 542 171 1120 196 1285 28 190 59 355 84 450 49 185 68 303 76 465 6 122 7
127 49 210 171 339 243 618 252 975 8 326 -31 558 -145 861 -159 423 -469 848
-880 1204 l-63 55 156 415 c86 228 244 647 350 930 107 283 244 648 305 810
62 162 125 330 141 373 l28 77 -278 0 -279 0 -11 -30z m-3466 -1640 c782 -42
1482 -212 2145 -522 124 -58 328 -170 412 -226 l67 -44 -60 -171 c-33 -95 -69
-197 -79 -227 -41 -122 -142 -412 -180 -520 -22 -63 -40 -116 -40 -117 0 -2
-23 9 -50 23 -28 15 -49 29 -46 31 2 2 23 -5 46 -17 23 -12 43 -20 45 -18 1 2
16 44 33 93 27 81 112 328 261 757 28 80 51 151 51 156 0 5 -17 21 -39 35
l-38 25 -173 -476 c-190 -525 -219 -603 -230 -615 -4 -5 -25 0 -47 11 -138 71
-468 199 -692 268 -238 74 -694 181 -789 185 -18 1 -21 3 -9 6 15 4 214 -27
286 -44 17 -4 22 -2 17 6 -9 15 -4 14 109 -9 54 -11 100 -18 102 -16 7 7 -236
56 -424 86 -779 121 -1541 80 -2333 -126 -1143 -296 -1950 -851 -2384 -1641
-31 -56 -66 -124 -77 -150 -30 -69 -94 -258 -109 -323 -7 -30 -14 -62 -17 -70
-6 -20 -36 50 -72 168 -291 948 128 1945 1109 2642 419 297 994 546 1591 689
511 122 1106 178 1614 151z m2526 -801 c-5 -13 -10 -19 -10 -12 -1 15 10 45
15 40 3 -2 0 -15 -5 -28z m-20 -56 c-12 -20 -14 -14 -5 12 4 9 9 14 11 11 3
-2 0 -13 -6 -23z m-40 -110 c-12 -20 -14 -14 -5 12 4 9 9 14 11 11 3 -2 0 -13
-6 -23z m-21 -60 c-11 -17 -11 -17 -6 0 3 10 6 24 7 30 0 9 2 9 5 0 3 -7 0
-20 -6 -30z m-21 -62 c-6 -18 -13 -30 -15 -28 -2 2 1 18 7 36 6 18 13 30 15
28 2 -2 -1 -18 -7 -36z m763 -140 c266 -255 449 -502 599 -806 129 -262 203
-522 230 -800 29 -306 -37 -685 -171 -990 l-22 -50 -18 86 c-62 302 -194 601
-383 869 -197 278 -488 565 -787 773 l-25 17 19 53 c17 47 340 915 365 980
l11 28 31 -22 c17 -12 85 -74 151 -138z m-801 42 c-12 -20 -14 -14 -5 12 4 9
9 14 11 11 3 -2 0 -13 -6 -23z m-21 -60 c-11 -17 -11 -17 -6 0 3 10 6 24 7 30
0 9 2 9 5 0 3 -7 0 -20 -6 -30z m-21 -62 c-6 -18 -13 -30 -15 -28 -2 2 1 18 7
36 6 18 13 30 15 28 2 -2 -1 -18 -7 -36z m-2146 -8 c-7 -2 -19 -2 -25 0 -7 3
-2 5 12 5 14 0 19 -2 13 -5z m120 -10 c-7 -2 -19 -2 -25 0 -7 3 -2 5 12 5 14
0 19 -2 13 -5z m80 -10 c-7 -2 -19 -2 -25 0 -7 3 -2 5 12 5 14 0 19 -2 13 -5z
m85 -10 c-10 -2 -26 -2 -35 0 -10 3 -2 5 17 5 19 0 27 -2 18 -5z m65 -10 c-7
-2 -19 -2 -25 0 -7 3 -2 5 12 5 14 0 19 -2 13 -5z m287 -23 c20 -6 21 -8 5 -8
-11 0 -31 4 -45 8 -20 6 -21 8 -5 8 11 0 31 -4 45 -8z m1471 -27 c-12 -20 -14
-14 -5 12 4 9 9 14 11 11 3 -2 0 -13 -6 -23z m-21 -60 c-11 -17 -11 -17 -6 0
3 10 6 24 7 30 0 9 2 9 5 0 3 -7 0 -20 -6 -30z m-26 -77 c-9 -26 -18 -45 -20
-43 -2 2 3 25 12 51 9 26 18 45 20 43 2 -2 -3 -25 -12 -51z m-40 -110 c-9 -26
-18 -45 -20 -43 -2 2 3 25 12 51 9 26 18 45 20 43 2 -2 -3 -25 -12 -51z m-33
-87 c-5 -13 -10 -19 -10 -12 -1 15 10 45 15 40 3 -2 0 -15 -5 -28z m-6524
-2181 c-3 -8 -6 -5 -6 6 -1 11 2 17 5 13 3 -3 4 -12 1 -19z"/>
<path d="M5458 9713 c7 -3 16 -2 19 1 4 3 -2 6 -13 5 -11 0 -14 -3 -6 -6z"/>
<path d="M5670 9690 c14 -4 34 -8 45 -8 16 0 15 2 -5 8 -14 4 -34 8 -45 8 -16
0 -15 -2 5 -8z"/>
<path d="M5748 9673 c7 -3 16 -2 19 1 4 3 -2 6 -13 5 -11 0 -14 -3 -6 -6z"/>
<path d="M5818 9653 c7 -3 16 -2 19 1 4 3 -2 6 -13 5 -11 0 -14 -3 -6 -6z"/>
</g>
</svg>
